<svg width="170" height="41" viewBox="0 0 170 41" fill="none" xmlns="http://www.w3.org/2000/svg">
<g clip-path="url(#clip0)">
<path d="M19.0469 0V6.53623L29.6088 11.0522L36.3139 7.13043L19.0469 0Z" fill="#782994"/>
<path d="M7.23909 12.0618L0 7.90234L2.84817 28.3429L8.72251 24.956L7.23909 12.0618Z" fill="#782994"/>
<path d="M19.0471 0L0 7.9029L7.23909 12.0623L19.0471 6.53623V0Z" fill="#782994"/>
<path d="M36.5512 19.8477L19.0469 32.5042V41.0013L35.2458 28.3448L36.5512 19.8477Z" fill="#782994"/>
<path d="M8.72298 24.957L2.84863 28.344L19.0476 41.0005V32.5034L8.72298 24.957Z" fill="#782994"/>
<path d="M12.9941 15.4492L13.4688 22.7579L19.1058 26.5608L19.1652 19.0144L12.9941 15.4492Z" fill="#782994"/>
<path d="M38.2129 7.84375L19.1658 18.9553L19.1064 26.5611L37.2635 14.4988L38.2129 7.84375Z" fill="#782994"/>
<path d="M57.0822 7.72656C50.8518 7.72656 48.1816 10.8164 48.1816 18.1251C48.1816 25.3744 50.9111 28.5831 57.0822 28.5831C63.3125 28.5831 65.9827 25.4338 65.9827 18.1251C65.9827 10.8164 63.3125 7.72656 57.0822 7.72656ZM57.0822 12.0048C60.1677 12.0048 60.9984 13.3121 60.9984 18.1251C60.9984 22.8787 60.1083 24.3048 57.0822 24.3048C53.9967 24.3048 53.1066 22.9382 53.1066 18.1251C53.1659 12.8961 54.3527 12.0048 57.0822 12.0048Z" fill="#782994"/>
<path d="M80.5794 19.7292L79.986 21.4524L79.3333 19.7292L74.705 8.08286L74.6457 8.02344H69.4834V28.1669H73.7557V17.9466L73.6963 16.4611L74.2303 17.8278L78.3246 28.1669H81.4694L85.5637 17.8278L86.0977 16.4017V17.9466V28.1669H90.4293V8.02344H85.267L80.5794 19.7292Z" fill="#782994"/>
<path d="M106.747 18.0655L106.806 19.7887L105.856 18.3626L98.7954 8.08286L98.7361 8.02344H94.7012V28.1669H98.9734V17.5901L98.9141 15.8669L99.9228 17.293L107.637 28.1075V28.1669H111.019V8.02344H106.747V18.0655Z" fill="#782994"/>
<path d="M120.039 19.7887H127.397V15.9263H120.039V12.2423H128.761L128.643 8.02344H115.292V28.1669H129.058L129.177 24.0075H120.039V19.7887Z" fill="#782994"/>
<path d="M141.696 21.5713L141.281 23.235L140.806 21.5713L136.949 8.02344H131.728L138.551 28.1669H143.773L150.597 8.02344H145.672L141.696 21.5713Z" fill="#782994"/>
<path d="M161.1 7.72656C154.869 7.72656 152.199 10.8164 152.199 18.1251C152.199 25.3744 154.929 28.5831 161.1 28.5831C167.33 28.5831 170 25.4338 170 18.1251C170 10.8164 167.33 7.72656 161.1 7.72656ZM161.1 12.0048C164.185 12.0048 165.016 13.3121 165.016 18.1251C165.016 22.8787 164.126 24.3048 161.1 24.3048C158.014 24.3048 157.124 22.9382 157.124 18.1251C157.184 12.8961 158.37 12.0048 161.1 12.0048Z" fill="#782994"/>
</g>
<defs>
<clipPath id="clip0">
<rect width="170" height="41" fill="white"/>
</clipPath>
</defs>
</svg>
